<svg width="46" height="45" viewBox="0 0 46 45" fill="none" xmlns="http://www.w3.org/2000/svg">
<path d="M23.0002 27.5249C25.7726 27.5248 28.0205 25.2768 28.0205 22.5044C28.0205 19.732 25.7724 17.4839 23 17.4839C20.2279 17.4839 17.9801 19.7314 17.9795 22.5034L23.0002 27.5249ZM23.0002 27.5249C20.2282 27.5206 17.9819 25.2743 17.9795 22.5035L23.0002 27.5249ZM43.6557 30.7626H43.7262C44.0212 30.7986 44.2496 31.0496 44.25 31.3543V43.1539C44.2495 43.483 43.983 43.7495 43.6539 43.75H2.34426C2.01658 43.75 1.75 43.4834 1.75 43.1557V31.3525C1.75 31.0248 2.01658 30.7582 2.34426 30.7582H10.8279H12.0779V29.5082V18.301V16.1472L10.2078 17.2156L2.63891 21.5401L2.63919 21.5406C2.55442 21.5898 2.45499 21.6189 2.34426 21.6189C2.01658 21.6189 1.75 21.3523 1.75 21.0246C1.75 20.8108 1.86321 20.6177 2.05293 20.5072C2.05358 20.5068 2.05424 20.5065 2.0549 20.5061L21.7759 9.23694L22.4057 8.87704V8.20266L24.8718 9.61172L43.9518 20.5135L43.97 20.5239C44.1416 20.6325 44.25 20.8198 44.25 21.029C44.25 21.3567 43.9834 21.6233 43.6557 21.6233C43.5403 21.6233 43.4408 21.5919 43.3701 21.5506L43.3701 21.5505L43.3597 21.5445L35.7923 17.2201L33.9221 16.1514V18.3054V29.5126V30.7626H35.1721H43.6557ZM25.4451 7.27727L22.4057 7.39135V1.84426C22.4057 1.52007 22.6689 1.25359 22.9949 1.25004C23.1637 1.25372 23.318 1.33199 23.4258 1.4661L24.3482 0.724893L24.2493 1.92514C24.4133 1.94194 24.5771 1.95217 24.7397 1.95677L27.1482 2.10732L26.8276 1.7084C27.3488 1.60156 27.8893 1.54508 28.4428 1.54508C29.1321 1.54508 29.7941 1.63303 30.3566 1.77832L30.3566 1.77835L30.366 1.78071L30.3778 1.78366L30.3871 1.786L30.3965 1.78819C30.6581 1.84933 30.8533 2.08686 30.8533 2.36656V6.51541C30.8533 6.84309 30.5867 7.10967 30.259 7.10967C30.2402 7.10967 30.2229 7.10887 30.2081 7.10763C30.2059 7.10744 30.2038 7.10725 30.2018 7.10705C29.6318 6.99441 29.0452 6.93705 28.4472 6.93705C27.8881 6.93705 27.3331 6.98703 26.8321 7.08115L26.8321 7.08102L26.7964 7.08794C26.79 7.08918 26.7836 7.09042 26.7773 7.09167L26.798 7.19796L26.7725 7.09411C26.3521 7.19738 25.9126 7.25973 25.4451 7.27727ZM26.7803 2.94235L26.698 2.96543C26.1011 3.10186 25.4811 3.17475 24.8443 3.17475H23.5943V4.42475V4.92049V6.17049H24.8443H24.8546H24.8546H24.8546H24.8546H24.8547H24.8547H24.8547H24.8547H24.8547H24.8547H24.8548H24.8548H24.8548H24.8548H24.8548H24.8549H24.8549H24.8549H24.8549H24.8549H24.8549H24.855H24.855H24.855H24.855H24.855H24.855H24.8551H24.8551H24.8551H24.8551H24.8551H24.8551H24.8552H24.8552H24.8552H24.8552H24.8552H24.8552H24.8553H24.8553H24.8553H24.8553H24.8553H24.8554H24.8554H24.8554H24.8554H24.8554H24.8554H24.8555H24.8555H24.8555H24.8555H24.8555H24.8555H24.8556H24.8556H24.8556H24.8556H24.8556H24.8556H24.8557H24.8557H24.8557H24.8557H24.8557H24.8557H24.8558H24.8558H24.8558H24.8558H24.8558H24.8559H24.8559H24.8559H24.8559H24.8559H24.8559H24.856H24.856H24.856H24.856H24.856H24.856H24.8561H24.8561H24.8561H24.8561H24.8561H24.8561H24.8562H24.8562H24.8562H24.8562H24.8562H24.8563H24.8563H24.8563H24.8563H24.8563H24.8563H24.8564H24.8564H24.8564H24.8564H24.8564H24.8564H24.8565H24.8565H24.8565H24.8565H24.8565H24.8565H24.8566H24.8566H24.8566H24.8566H24.8566H24.8566H24.8567H24.8567H24.8567H24.8567H24.8567H24.8568H24.8568H24.8568H24.8568H24.8568H24.8568H24.8569H24.8569H24.8569H24.8569H24.8569H24.8569H24.857H24.857H24.857H24.857H24.857H24.857H24.8571H24.8571H24.8571H24.8571H24.8571H24.8571H24.8572H24.8572H24.8572H24.8572H24.8572H24.8573H24.8573H24.8573H24.8573H24.8573H24.8573H24.8574H24.8574H24.8574H24.8574H24.8574H24.8574H24.8575H24.8575H24.8575H24.8575H24.8575H24.8575H24.8576H24.8576H24.8576H24.8576H24.8576H24.8577H24.8577H24.8577H24.8577H24.8577H24.8577H24.8578H24.8578H24.8578H24.8578H24.8578H24.8578H24.8579H24.8579H24.8579H24.8579H24.8579H24.8579H24.858H24.858H24.858H24.858H24.858H24.858H24.8581H24.8581H24.8581H24.8581H24.8581H24.8582H24.8582H24.8582H24.8582H24.8582H24.8582H24.8583H24.8583H24.8583H24.8583H24.8583H24.8583H24.8584H24.8584H24.8584H24.8584H24.8584H24.8584H24.8585H24.8585H24.8585H24.8585H24.8585H24.8585H24.8586H24.8586H24.8586H24.8586H24.8586H24.8587H24.8587H24.8587H24.8587H24.8587H24.8587H24.8588H24.8588H24.8588H24.8588H24.8588H24.8588H24.8589H24.8589H24.8589H24.8589H24.8589H24.8589H24.859H24.859H24.859H24.859C25.4124 6.17049 25.958 6.09477 26.4521 5.95242C27.0909 5.83492 27.7512 5.76806 28.4373 5.7557L29.6648 5.73358V4.5059V3.98656H28.4489L28.4786 2.73797C28.417 2.73504 28.3597 2.73507 28.3314 2.73508L28.3262 2.73508C28.282 2.73508 28.2379 2.73558 28.1938 2.73656H27.1648V2.84996C27.0335 2.87648 26.905 2.90736 26.7803 2.94235ZM4.18852 31.9511H2.93852V33.2011V41.3159V42.5659H4.18852H10.8279H12.0779V41.3159V33.2011V31.9511H10.8279H4.18852ZM13.8962 15.1118L13.2664 15.4717V16.1971V31.3569V41.3159V42.5659H14.5164H16.7295H17.9795V41.3159V34.3077C17.9795 33.98 18.2461 33.7134 18.5738 33.7134H27.4244C27.7532 33.7139 28.0195 33.98 28.0205 34.3086C28.0205 34.3089 28.0205 34.3092 28.0205 34.3095L28.0205 41.3159V42.5659H29.2705H31.4836H32.7336V41.3159V16.1971V15.4717L32.1038 15.1118L23.6202 10.2636L23 9.90913L22.3798 10.2636L13.8962 15.1118ZM19.168 41.3159V42.5659H20.418H25.582H26.832V41.3159V36.152V34.902H25.582H20.418H19.168V36.152V41.3159ZM41.8115 42.5659H43.0615V41.3159V33.2011V31.9511H41.8115H35.1721H33.9221V33.2011V41.3159V42.5659H35.1721H41.8115ZM23 18.6725H22.9987C20.8841 18.6746 19.1702 20.3885 19.168 22.5031V22.5044C19.168 24.62 20.8844 26.3364 23 26.3364C25.1156 26.3364 26.832 24.62 26.832 22.5044C26.832 20.3888 25.1156 18.6725 23 18.6725Z" stroke="#E924AE" stroke-width="2.5"/>
</svg>
