<svg width="40" height="45" viewBox="0 0 40 45" fill="none" xmlns="http://www.w3.org/2000/svg">
<mask id="path-1-inside-1_25_375" fill="white">
<path d="M39.2806 16.6575C36.8472 6.85125 28.5742 0 19.167 0C18.3333 0 17.4891 0.0543748 16.6623 0.163125L15.7053 3.41625C17.6958 5.36062 19.1149 7.86 19.8062 10.6425C21.7897 18.6319 17.3814 26.8744 9.98038 29.0138C7.40625 29.76 4.67928 29.6831 2.13295 28.7925L0 31.3125C3.27932 39.6169 10.7933 44.9831 19.1427 44.9831H19.1444C20.956 44.9831 22.7728 44.7244 24.5393 44.2125C29.9168 42.6562 34.412 38.9344 37.1945 33.7294C39.9823 28.5263 40.7222 22.4625 39.2806 16.6575ZM34.1897 31.8562C31.8691 36.1931 28.1243 39.2962 23.643 40.5919C22.1684 41.0194 20.6555 41.235 19.1461 41.235C13.3934 41.235 8.11492 38.1769 4.91724 33.2063C6.9147 33.3956 8.93475 33.2025 10.8801 32.6381C20.131 29.9625 25.6405 19.6613 23.1619 9.67313C22.6391 7.56375 21.7828 5.58938 20.6382 3.8175C27.8551 4.47938 34.0247 9.97125 35.9266 17.6269C37.1268 22.4662 36.5085 27.5194 34.1897 31.8562Z"/>
</mask>
<path d="M39.2806 16.6575L34.9131 17.7413L34.9133 17.7421L39.2806 16.6575ZM16.6623 0.163125L16.0755 -4.29844L13.1718 -3.91651L12.3453 -1.10692L16.6623 0.163125ZM15.7053 3.41625L11.3882 2.1462L10.6241 4.7435L12.5608 6.63532L15.7053 3.41625ZM19.8062 10.6425L24.1736 9.55818L24.1734 9.55749L19.8062 10.6425ZM9.98038 29.0138L8.73075 24.6907L8.7274 24.6917L9.98038 29.0138ZM2.13295 28.7925L3.61864 24.5448L0.697479 23.5231L-1.30186 25.8853L2.13295 28.7925ZM0 31.3125L-3.43481 28.4053L-5.17453 30.4607L-4.18548 32.9653L0 31.3125ZM24.5393 44.2125L23.2883 39.8899L23.2868 39.8903L24.5393 44.2125ZM37.1945 33.7294L33.228 31.6042L33.226 31.6078L37.1945 33.7294ZM34.1897 31.8562L38.1574 33.9793L38.158 33.978L34.1897 31.8562ZM23.643 40.5919L22.3932 36.2689L22.3901 36.2698L23.643 40.5919ZM4.91724 33.2063L5.34197 28.7263L-3.87784 27.8522L1.13273 35.6409L4.91724 33.2063ZM10.8801 32.6381L9.62982 28.3153L9.62629 28.3163L10.8801 32.6381ZM23.1619 9.67313L18.7941 10.7557L18.7944 10.7569L23.1619 9.67313ZM20.6382 3.8175L21.0491 -0.663693L11.8404 -1.50824L16.8583 6.25931L20.6382 3.8175ZM35.9266 17.6269L40.2943 16.5436L40.2938 16.5419L35.9266 17.6269ZM43.6481 15.5737C40.7688 3.97041 30.8507 -4.5 19.167 -4.5V4.5C26.2976 4.5 32.9256 9.73209 34.9131 17.7413L43.6481 15.5737ZM19.167 -4.5C18.1402 -4.5 17.1 -4.43321 16.0755 -4.29844L17.2492 4.62469C17.8782 4.54195 18.5263 4.5 19.167 4.5V-4.5ZM12.3453 -1.10692L11.3882 2.1462L20.0223 4.6863L20.9794 1.43317L12.3453 -1.10692ZM12.5608 6.63532C13.9354 7.97801 14.943 9.73119 15.4389 11.7275L24.1734 9.55749C23.2868 5.98881 21.4562 2.74324 18.8497 0.197177L12.5608 6.63532ZM15.4388 11.7268C16.9046 17.6308 13.5573 23.2956 8.73075 24.6907L11.23 33.3368C21.2055 30.4532 26.6749 19.633 24.1736 9.55818L15.4388 11.7268ZM8.7274 24.6917C7.05797 25.1757 5.28818 25.1288 3.61864 24.5448L0.647249 33.0402C4.07038 34.2375 7.75454 34.3443 11.2334 33.3358L8.7274 24.6917ZM-1.30186 25.8853L-3.43481 28.4053L3.43481 34.2197L5.56776 31.6997L-1.30186 25.8853ZM-4.18548 32.9653C-0.28947 42.8314 8.78321 49.4831 19.1427 49.4831V40.4831C12.8033 40.4831 6.8481 36.4024 4.18548 29.6597L-4.18548 32.9653ZM19.1427 49.4831H19.1444V40.4831H19.1427V49.4831ZM19.1444 49.4831C21.3843 49.4831 23.6227 49.1632 25.7918 48.5347L23.2868 39.8903C21.923 40.2855 20.5277 40.4831 19.1444 40.4831V49.4831ZM25.7903 48.5351C32.401 46.622 37.8425 42.0623 41.1631 35.8509L33.226 31.6078C30.9815 35.8065 27.4327 38.6905 23.2883 39.8899L25.7903 48.5351ZM41.1611 35.8546C44.4838 29.6531 45.3543 22.4438 43.6479 15.5729L34.9133 17.7421C36.0902 22.4812 35.4808 27.3994 33.228 31.6042L41.1611 35.8546ZM30.2219 29.7332C28.4385 33.0664 25.639 35.3305 22.3932 36.2689L24.8929 44.9148C30.6096 43.262 35.2998 39.3198 38.1574 33.9793L30.2219 29.7332ZM22.3901 36.2698C21.3177 36.5807 20.2264 36.735 19.1461 36.735V45.735C21.0846 45.735 23.0191 45.458 24.896 44.9139L22.3901 36.2698ZM19.1461 36.735C15.0401 36.735 11.1361 34.5557 8.70175 30.7716L1.13273 35.6409C5.09375 41.7981 11.7467 45.735 19.1461 45.735V36.735ZM4.49251 37.6862C7.06145 37.9297 9.6508 37.6803 12.1339 36.9599L9.62629 28.3163C8.2187 28.7247 6.76796 28.8615 5.34197 28.7263L4.49251 37.6862ZM12.1304 36.9609C23.9551 33.5409 30.5255 20.6625 27.5294 8.5893L18.7944 10.7569C20.7556 18.66 16.3068 26.3841 9.62982 28.3153L12.1304 36.9609ZM27.5298 8.59054C26.8885 6.00312 25.8348 3.56884 24.418 1.37569L16.8583 6.25931C17.7308 7.60991 18.3897 9.12438 18.7941 10.7557L27.5298 8.59054ZM20.2272 8.29869C25.37 8.77035 30.0774 12.7467 31.5593 18.7119L40.2938 16.5419C37.9719 7.19583 30.3401 0.188398 21.0491 -0.663693L20.2272 8.29869ZM31.5589 18.7101C32.4948 22.4836 32.0077 26.3933 30.2213 29.7345L38.158 33.978C41.0092 28.6455 41.7588 22.4489 40.2943 16.5436L31.5589 18.7101Z" fill="#FFC62F" mask="url(#path-1-inside-1_25_375)"/>
</svg>
