<svg width="29" height="22" viewBox="0 0 29 22" fill="none" xmlns="http://www.w3.org/2000/svg">
<path d="M28.3976 4.05443C28.2349 3.44128 27.914 2.88166 27.4671 2.43161C27.0202 1.98156 26.4629 1.65687 25.8511 1.49007C23.606 0.883789 14.6 0.883789 14.6 0.883789C14.6 0.883789 5.59395 0.883789 3.34755 1.49007C2.73604 1.65717 2.17911 1.98197 1.73244 2.43198C1.28578 2.88201 0.965061 3.44147 0.802351 4.05443C0.199951 6.31625 0.199951 11.0344 0.199951 11.0344C0.199951 11.0344 0.199951 15.7525 0.802351 18.0143C0.965055 18.6275 1.28592 19.1871 1.73282 19.6371C2.17972 20.0872 2.73696 20.4118 3.34875 20.5787C5.59395 21.1849 14.6 21.1849 14.6 21.1849C14.6 21.1849 23.606 21.1849 25.8524 20.5787C26.4642 20.412 27.0215 20.0873 27.4684 19.6373C27.9154 19.1872 28.2361 18.6275 28.3988 18.0143C29 15.7525 29 11.0344 29 11.0344C29 11.0344 29 6.31625 28.3976 4.05443ZM11.654 15.3179V6.75087L19.1816 11.0344L11.654 15.3179Z" fill="#F5F5F5"/>
</svg>