<svg width="29" height="30" viewBox="0 0 29 30" fill="none" xmlns="http://www.w3.org/2000/svg">
<g clip-path="url(#clip0_89_60)">
<path d="M14.4 0.62793C10.488 0.62793 9.99963 0.645938 8.4636 0.714369C6.93 0.786401 5.886 1.02771 4.968 1.38427C4.0212 1.75164 3.2172 2.24506 2.4168 3.04582C1.6164 3.84659 1.122 4.64975 0.756 5.59817C0.3996 6.51659 0.1572 7.56106 0.0864 9.09535C0.0144 10.6321 0 11.1206 0 15.0344C0 18.9482 0.018 19.4368 0.0864 20.9735C0.1584 22.5066 0.3996 23.5523 0.756 24.4707C1.1232 25.4167 1.6164 26.2223 2.4168 27.0231C3.2172 27.8226 4.02 28.3184 4.968 28.6846C5.8872 29.04 6.9312 29.2836 8.4636 29.3545C9.99963 29.4265 10.488 29.4409 14.4 29.4409C18.312 29.4409 18.8004 29.4229 20.3364 29.3545C21.8688 29.2825 22.914 29.04 23.832 28.6846C24.7776 28.3172 25.5828 27.8226 26.3832 27.0231C27.1824 26.2223 27.678 25.4204 28.044 24.4707C28.3992 23.5523 28.6428 22.5066 28.7136 20.9735C28.7856 19.4368 28.8 18.9482 28.8 15.0344C28.8 11.1206 28.782 10.6321 28.7136 9.09535C28.6416 7.56226 28.3992 6.51539 28.044 5.59817C27.6768 4.65095 27.1824 3.84659 26.3832 3.04582C25.5828 2.24506 24.7812 1.75044 23.832 1.38427C22.914 1.02771 21.8688 0.785201 20.3364 0.714369C18.8004 0.642336 18.312 0.62793 14.4 0.62793ZM14.4 3.2211C18.2436 3.2211 18.702 3.24031 20.22 3.30634C21.624 3.37237 22.386 3.60528 22.8924 3.80456C23.5668 4.06508 24.0444 4.37722 24.5508 4.88025C25.0536 5.38448 25.3656 5.8635 25.626 6.5382C25.8228 7.04483 26.058 7.80717 26.1216 9.2118C26.19 10.7317 26.2056 11.1879 26.2056 15.0344C26.2056 18.881 26.1876 19.3384 26.1168 20.8571C26.0436 22.2617 25.8096 23.024 25.6116 23.5307C25.3428 24.2053 25.0368 24.6832 24.5328 25.1898C24.03 25.6928 23.544 26.005 22.8768 26.2655C22.3728 26.4624 21.5988 26.6977 20.1948 26.7613C18.666 26.8298 18.216 26.8453 14.364 26.8453C10.5108 26.8453 10.0608 26.8273 8.5332 26.7566C7.128 26.6833 6.354 26.4492 5.85 26.2511C5.1672 25.9822 4.698 25.6761 4.1952 25.1718C3.69 24.6688 3.3672 24.1826 3.1152 23.5151C2.9172 23.0109 2.6844 22.2365 2.6112 20.8319C2.5572 19.3192 2.538 18.8522 2.538 15.0164C2.538 11.1795 2.5572 10.7113 2.6112 9.18059C2.6844 7.77596 2.9172 7.00281 3.1152 6.49858C3.3672 5.81427 3.69 5.34606 4.1952 4.84063C4.698 4.3376 5.1672 4.01346 5.85 3.76254C6.354 3.56325 7.1112 3.32915 8.5152 3.25712C10.0452 3.20309 10.4952 3.18508 14.346 3.18508L14.4 3.2211ZM14.4 7.63669C10.314 7.63669 7.0056 10.9502 7.0056 15.0344C7.0056 19.1223 10.3176 22.4322 14.4 22.4322C18.486 22.4322 21.7944 19.1187 21.7944 15.0344C21.7944 10.9466 18.4824 7.63669 14.4 7.63669ZM14.4 19.8366C11.748 19.8366 9.60003 17.6877 9.60003 15.0344C9.60003 12.3812 11.748 10.2323 14.4 10.2323C17.052 10.2323 19.2 12.3812 19.2 15.0344C19.2 17.6877 17.052 19.8366 14.4 19.8366ZM23.8152 7.34496C23.8152 8.29939 23.04 9.07374 22.0872 9.07374C21.1332 9.07374 20.3592 8.2982 20.3592 7.34496C20.3592 6.39173 21.1344 5.61738 22.0872 5.61738C23.0388 5.61618 23.8152 6.39173 23.8152 7.34496Z" fill="#F5F5F5"/>
</g>
<defs>
<clipPath id="clip0_89_60">
<rect width="28.8" height="28.813" fill="white" transform="translate(0 0.62793)"/>
</clipPath>
</defs>
</svg>