<svg width="110" height="110" viewBox="0 0 110 110" fill="none" xmlns="http://www.w3.org/2000/svg">
<path d="M68.3633 3.49972C70.5976 1.34884 71.7147 0.273343 72.768 0.152014C73.6851 0.0462306 74.6006 0.351724 75.271 0.987306C76.0404 1.71684 76.2878 3.2477 76.7826 6.3093L79.818 25.0863C80.0319 26.4083 80.1387 27.0691 80.4526 27.5903C80.7295 28.0503 81.1194 28.4309 81.5844 28.6956C82.1117 28.9956 82.7723 29.0839 84.0932 29.2603L102.853 31.7655C105.912 32.1739 107.442 32.3783 108.19 33.1301C108.841 33.7849 109.171 34.6958 109.093 35.6205C109.003 36.6824 107.966 37.8361 105.892 40.1435L93.1716 54.2949C92.2759 55.291 91.8287 55.7893 91.6177 56.3623C91.4317 56.8679 91.3775 57.4128 91.4604 57.9449C91.5543 58.5472 91.8954 59.1215 92.5778 60.2702L102.268 76.5854C103.848 79.2455 104.638 80.5758 104.517 81.6342C104.412 82.5568 103.909 83.3869 103.141 83.9046C102.259 84.4993 100.718 84.4071 97.637 84.2227L78.74 83.0919C77.4093 83.0125 76.7442 82.9729 76.1679 83.1666C75.6595 83.337 75.2021 83.6361 74.8398 84.0343C74.4294 84.4856 74.1942 85.1132 73.7242 86.3691L67.0472 104.208C65.9588 107.117 65.4147 108.571 64.5163 109.14C63.7335 109.635 62.7756 109.76 61.8964 109.481C60.8869 109.16 60.0033 107.892 58.2348 105.354L47.3905 89.7932C46.6269 88.6979 46.2452 88.15 45.7372 87.8181C45.2888 87.5254 44.7725 87.3531 44.2382 87.3178C43.6326 87.2781 42.9984 87.487 41.73 87.9043L23.7139 93.8345C20.7763 94.8013 19.3076 95.2848 18.3079 94.9352C17.4374 94.6307 16.746 93.9555 16.4178 93.0893C16.0409 92.0951 16.479 90.6056 17.3553 87.626L22.7298 69.352C23.1082 68.0655 23.2973 67.4225 23.2401 66.8152C23.1896 66.2793 23.0036 65.7654 22.6991 65.3237C22.3545 64.8228 21.7988 64.455 20.6874 63.7194L4.89816 53.2752C2.32367 51.5723 1.03643 50.7208 0.68856 49.7157C0.385412 48.8406 0.481465 47.8745 0.951256 47.0736C1.49042 46.1549 2.92098 45.5655 5.78192 44.3875L23.3283 37.1612C24.5635 36.6524 25.1811 36.398 25.6178 35.9728C26.0034 35.5971 26.2873 35.1289 26.4423 34.6129C26.6181 34.0281 26.5592 33.361 26.4415 32.0267L24.769 13.0723C24.4963 9.98179 24.3599 8.43654 24.9255 7.53341C25.4181 6.74683 26.2293 6.2168 27.1433 6.08441C28.1927 5.93237 29.5384 6.68755 32.2296 8.19792L48.735 17.4611C49.897 18.1132 50.4779 18.4393 51.0797 18.516C51.611 18.5837 52.1512 18.5135 52.6489 18.312C53.2126 18.0837 53.6949 17.6194 54.6596 16.6908L68.3633 3.49972Z" fill="#DFC8FE"/>
</svg>
