<svg width="160" height="234" viewBox="0 0 160 234" fill="none" xmlns="http://www.w3.org/2000/svg">
<path d="M72.7449 7.71508C77.507 3.13071 79.8881 0.838401 82.133 0.579804C84.0879 0.354338 86.0391 1.00546 87.4681 2.36014C89.1078 3.91506 89.6351 7.17793 90.6898 13.7034L97.1594 53.7245C97.6154 56.5422 97.8428 57.9508 98.512 59.0615C99.1021 60.042 99.9332 60.8532 100.924 61.4174C102.048 62.0569 103.456 62.2451 106.271 62.6211L146.257 67.9606C152.776 68.8311 156.037 69.2666 157.631 70.8691C159.019 72.2647 159.723 74.2062 159.555 76.1771C159.364 78.4404 157.154 80.8995 152.733 85.8173L125.621 115.98C123.712 118.103 122.759 119.165 122.309 120.386C121.913 121.464 121.797 122.625 121.974 123.759C122.174 125.043 122.901 126.267 124.355 128.715L145.009 163.489C148.377 169.159 150.06 171.994 149.803 174.25C149.58 176.217 148.506 177.986 146.87 179.09C144.99 180.357 141.706 180.161 135.139 179.768L94.8617 177.357C92.0254 177.188 90.6079 177.104 89.3796 177.516C88.2961 177.88 87.321 178.517 86.5489 179.366C85.6741 180.328 85.1728 181.665 84.171 184.342L69.9398 222.365C67.62 228.565 66.4603 231.664 64.5454 232.876C62.8771 233.932 60.8353 234.198 58.9614 233.603C56.8098 232.919 54.9264 230.215 51.157 224.807L28.0436 191.64C26.4161 189.306 25.6025 188.138 24.5197 187.431C23.564 186.807 22.4636 186.44 21.3248 186.364C20.0342 186.28 18.6823 186.725 15.9789 187.614L-22.4205 200.254C-28.6816 202.315 -31.8121 203.345 -33.9427 202.6C-35.7983 201.951 -37.2719 200.512 -37.9713 198.666C-38.7746 196.547 -37.8409 193.372 -35.9731 187.021L-24.518 148.072C-23.7115 145.33 -23.3085 143.96 -23.4303 142.665C-23.5379 141.523 -23.9345 140.428 -24.5835 139.486C-25.3179 138.419 -26.5024 137.635 -28.8712 136.067L-62.5242 113.806C-68.0115 110.177 -70.7551 108.362 -71.4966 106.219C-72.1427 104.354 -71.938 102.295 -70.9367 100.588C-69.7875 98.63 -66.7384 97.3739 -60.6406 94.863L-23.2424 79.461C-20.6096 78.3766 -19.2933 77.8344 -18.3625 76.9281C-17.5406 76.1272 -16.9355 75.1292 -16.6052 74.0296C-16.2305 72.7831 -16.3559 71.3611 -16.607 68.5173L-20.1717 28.1181C-20.7529 21.5309 -21.0436 18.2374 -19.838 16.3125C-18.7882 14.636 -17.0592 13.5063 -15.111 13.2241C-12.8744 12.9 -10.0062 14.5096 -4.27014 17.7288L30.9094 37.4723C33.3859 38.8622 34.6242 39.5571 35.9068 39.7206C37.0392 39.8651 38.1906 39.7154 39.2513 39.2859C40.4528 38.7994 41.4808 37.8097 43.5369 35.8304L72.7449 7.71508Z" fill="#FFC62F"/>
</svg>
