<svg width="19" height="19" viewBox="0 0 19 19" fill="none" xmlns="http://www.w3.org/2000/svg">
<path fill-rule="evenodd" clip-rule="evenodd" d="M16.625 7.125H11.875V2.375C11.875 1.06281 10.8116 0 9.5 0C8.18841 0 7.125 1.06281 7.125 2.375V7.125H2.375C1.06341 7.125 0 8.18781 0 9.5C0 10.8122 1.06341 11.875 2.375 11.875H7.125V16.625C7.125 17.9372 8.18841 19 9.5 19C10.8116 19 11.875 17.9372 11.875 16.625V11.875H16.625C17.9366 11.875 19 10.8122 19 9.5C19 8.18781 17.9366 7.125 16.625 7.125Z" fill="#6F24E9"/>
</svg>
