<svg width="27" height="27" viewBox="0 0 27 27" fill="none" xmlns="http://www.w3.org/2000/svg">
<path d="M13.6183 14.4781V15.1677L14.263 15.4128L19.0243 17.2229L19.0244 17.2229C19.2051 17.2916 19.2958 17.4937 19.2271 17.6742L19.2271 17.6744C19.1584 17.8551 18.9563 17.9458 18.7758 17.8771L18.7757 17.8771L13.1442 15.7365C13.0081 15.6847 12.9183 15.5544 12.9183 15.4092V7.77244C12.9183 7.57912 13.075 7.42244 13.2683 7.42244C13.4617 7.42244 13.6183 7.57912 13.6183 7.77244V14.4781ZM13.5 1.7C6.98304 1.7 1.7 6.98304 1.7 13.5C1.7 20.017 6.98304 25.3 13.5 25.3C20.017 25.3 25.3 20.017 25.3 13.5C25.3 6.98304 20.017 1.7 13.5 1.7ZM1 13.5C1 6.59644 6.59644 1 13.5 1C20.4035 1 26 6.59644 26 13.5C26 20.4035 20.4035 26 13.5 26C6.59644 26 1 20.4035 1 13.5Z" stroke="#0A0430" stroke-width="2"/>
</svg>
