<svg width="18" height="24" viewBox="0 0 18 24" fill="none" xmlns="http://www.w3.org/2000/svg">
<path d="M1.61242 23.325C1.2809 23.325 0.962953 23.1933 0.728533 22.9589C0.494112 22.7245 0.362416 22.4065 0.362416 22.075L0.174916 3.75C0.159865 3.37793 0.21852 3.00656 0.347509 2.65724C0.476499 2.30792 0.673276 1.98755 0.926524 1.71455C1.17977 1.44155 1.48449 1.22132 1.82316 1.06651C2.16183 0.911702 2.52777 0.825377 2.89992 0.8125L14.8874 0.75C15.2601 0.756509 15.6278 0.836366 15.9695 0.985009C16.3113 1.13365 16.6205 1.34817 16.8793 1.61631C17.1382 1.88445 17.3417 2.20096 17.4782 2.54776C17.6147 2.89456 17.6815 3.26486 17.6749 3.6375L17.8499 21.9625C17.8521 22.1815 17.7966 22.3973 17.6891 22.5882C17.5816 22.779 17.4258 22.9383 17.2374 23.05C17.0474 23.1597 16.8318 23.2175 16.6124 23.2175C16.393 23.2175 16.1774 23.1597 15.9874 23.05L8.86242 19.1L2.24992 23.1375C2.05411 23.2469 1.83626 23.3109 1.61242 23.325ZM8.81242 16.3875C9.02962 16.3879 9.2437 16.4393 9.43742 16.5375L15.3249 19.8L15.1749 3.6125C15.1749 3.3625 15.0124 3.1875 14.9124 3.2L2.91242 3.3125C2.81242 3.3125 2.67492 3.475 2.67492 3.725L2.82492 19.85L8.17492 16.5625C8.36922 16.4512 8.58854 16.391 8.81242 16.3875Z" fill="#0A0430"/>
</svg>
