<svg width="51" height="51" viewBox="0 0 51 51" fill="none" xmlns="http://www.w3.org/2000/svg">
<path fill-rule="evenodd" clip-rule="evenodd" d="M45.7281 37.798L36.0381 26.348L47.4881 16.6579C50.6511 13.9811 51.0437 9.24954 48.368 6.08791C45.6924 2.92627 40.9611 2.53106 37.798 5.20794L26.348 14.898L16.6579 3.448C13.9823 0.286367 9.25097 -0.108849 6.08791 2.56803C2.92484 5.24491 2.53227 9.97643 5.20794 13.1381L14.898 24.5881L3.448 34.2781C0.284938 36.955 -0.107637 41.6865 2.56803 44.8482C5.2437 48.0098 9.97501 48.405 13.1381 45.7281L24.5881 36.0381L34.2781 47.4881C36.9538 50.6497 41.6851 51.0449 44.8482 48.368C48.0112 45.6912 48.4038 40.9596 45.7281 37.798Z" fill="#FFF3A9"/>
</svg>
