<!--Plus 2-->
            <svg width="60" height="60" viewBox="0 0 55 55" fill="none" xmlns="http://www.w3.org/2000/svg" id="cross2">
                <path fill-rule="evenodd" clip-rule="evenodd" d="M43.9556 10.4193L30.6533 17.351L23.7216 4.04874C21.8067 0.373979 17.2777 -1.05058 13.6046 0.863444C9.93152 2.77746 8.50443 7.30569 10.4193 10.9805L17.351 24.2828L4.04872 31.2145C0.375622 33.1285 -1.05146 37.6567 0.863424 41.3315C2.77831 45.0062 7.30733 46.4308 10.9804 44.5168L24.2827 37.5851L31.2145 50.8874C33.1293 54.5621 37.6584 55.9867 41.3315 54.0727C45.0046 52.1587 46.4316 47.6304 44.5168 43.9557L37.585 30.6534L50.8874 23.7216C54.5605 21.8076 55.9875 17.2794 54.0727 13.6046C52.1578 9.92987 47.6287 8.50532 43.9556 10.4193Z" fill="#FFF3A9;
                "/>
            </svg>
