<svg width="52" height="50" viewBox="0 0 52 50" fill="none" xmlns="http://www.w3.org/2000/svg">
<path d="M39.4063 32.8421C40.2493 27.7666 41.6122 23.6463 43.632 19.8147L43.9782 19.1579H13.6841C11.8176 19.1579 10.9473 21.9481 10.9473 23.8324C10.9473 26.2066 11.2853 27.7694 14.5161 32.7737L18.8088 39.2874L25.3335 32.8421H39.4063Z" fill="#6F24E9"/>
<path d="M52 0V20.5263C52 22.2191 52 27.3684 47.3241 27.3684H46.6221L42.6427 21.8304C41.4878 24.3647 40.5942 27.0633 39.9264 30.1053H45.7709C47.5978 30.1053 49.2632 31.7706 49.2632 33.5988C49.2632 36.6778 45.7395 41.4344 45.3372 41.9654L43.1532 40.3164C44.4573 38.5867 46.5263 35.2327 46.5263 33.5988C46.5263 33.2951 46.0734 32.8421 45.7696 32.8421H39.4051C38.6511 37.3812 38.3158 42.6852 38.3158 49.2632H35.5789C35.5789 34.8427 37.1581 26.2285 41.21 18.538L42.2418 16.5812L47.97 24.5536C48.7035 24.3292 49.2632 23.4903 49.2632 20.5263V0H52ZM43.7895 8.21053H46.5263V0H43.7895V4.10526C42.9068 3.34579 41.8504 2.73684 39.6842 2.73684H32.8421V5.47368H39.6842C41.5973 5.47368 43.7895 7.55095 43.7895 8.21053ZM38.3158 8.21053H27.3684V10.9474H35.5789L38.3158 8.21053ZM15.2798 38.9261L20.3471 46.5263H23.6354L18.8089 39.2874L25.3336 32.8421H33.8575C33.9965 31.9263 34.1562 31.0138 34.3364 30.1053H24.2115L15.2798 38.9261ZM20.8643 29.562L18.9417 27.6161L12.2173 34.2584C8.82221 29.0009 8.21053 26.9045 8.21053 23.8324C8.21053 20.2403 10.1291 16.4211 13.6842 16.4211H30.1053L32.8421 13.6842H13.6842C13.3435 13.6842 13.0109 13.7129 12.6839 13.7595C11.9299 12.6675 10.3918 10.9474 8.15716 10.9474C3.3499 10.9474 0 17.7375 0 23.8324C0 27.3958 0.819684 30.7717 2.50011 34.1243L0.314737 36.7572L2.42074 38.5046L5.77884 34.4555L5.33684 33.6413C4.22021 31.5927 2.73684 28.3468 2.73684 23.8324C2.73684 18.7104 5.42168 13.6842 8.15716 13.6842C8.82905 13.6842 9.46811 14.1864 9.95663 14.7269C7.25537 16.3499 5.47368 19.7285 5.47368 23.8324C5.47368 27.8036 6.474 30.4816 10.2289 36.2221L7.42095 38.9959L14.2644 49.2632H17.5527L10.9487 39.3572L20.8643 29.562Z" fill="#231F20"/>
</svg>
