<svg width="65" height="57" viewBox="0 0 65 57" fill="none" xmlns="http://www.w3.org/2000/svg">
<path d="M29.4485 22.1906L27.3851 24.2541L22.6012 19.4704C22.0314 18.9005 22.0314 17.9765 22.6012 17.4069C23.1711 16.837 24.0951 16.837 24.6647 17.4069L29.4485 22.1906Z" fill="white"/>
<path d="M27.0932 19.9309L24.9266 21.5559L22.6012 19.4704C22.0314 18.9005 22.0314 17.9765 22.6012 17.4069C23.1711 16.837 24.0951 16.837 24.6647 17.4069L27.0932 19.9309Z" fill="#F9D85C"/>
<path d="M35.5505 22.1906L37.614 24.2541L42.3978 19.4704C42.9677 18.9005 42.9677 17.9765 42.3978 17.4069C41.8279 16.837 40.904 16.837 40.3343 17.4069L35.5505 22.1906Z" fill="#F9D85C"/>
<path d="M38.2005 56.0231H33.2994C32.7733 56.0231 32.2969 55.7122 32.0851 55.2307L24.2578 37.4339C20.6878 29.3169 26.6331 20.207 35.5006 20.207H35.9992C44.8667 20.207 50.8121 29.3167 47.242 37.4339L39.4148 55.2307C39.203 55.7122 38.7267 56.0231 38.2005 56.0231Z" fill="#FFB555"/>
<path d="M31.5638 53.0642L23.7366 35.2674C20.3184 27.4957 25.6236 18.8153 33.8643 18.0905C33.4981 18.0583 33.1265 18.0405 32.7493 18.0405H32.2506C23.3831 18.0405 17.4377 27.1502 21.0079 35.2674L28.8351 53.0642C29.047 53.5457 29.5233 53.8566 30.0494 53.8566H32.7784C32.252 53.8566 31.7757 53.5457 31.5638 53.0642Z" fill="white"/>
<path d="M17.1382 24.3734C20.1493 27.3845 19.9521 32.4636 19.9521 32.4636C19.9521 32.4636 14.873 32.6607 11.8619 29.6497C8.8509 26.6386 9.04805 21.5595 9.04805 21.5595C9.04805 21.5595 14.127 21.3624 17.1382 24.3734Z" fill="#CC8525"/>
<path d="M19.9521 32.4641L9.0481 21.56C9.0481 21.56 14.1273 21.3624 17.1385 24.3735C20.1485 27.3849 19.9521 32.4641 19.9521 32.4641Z" fill="#FFB555"/>
<path d="M47.8612 24.3734C44.8502 27.3845 45.0473 32.4636 45.0473 32.4636C45.0473 32.4636 50.1264 32.6607 53.1375 29.6497C56.1485 26.6386 55.9514 21.5595 55.9514 21.5595C55.9514 21.5595 50.8724 21.3624 47.8612 24.3734Z" fill="#CC8525"/>
<path d="M55.9513 21.56L45.0473 32.4641C45.0473 32.4641 44.851 27.3849 47.8608 24.3737C50.872 21.3624 55.9513 21.56 55.9513 21.56Z" fill="#FFB555"/>
<path d="M31.9454 48.2667L30.0735 45.9865C29.7181 45.5537 30.0261 44.9023 30.5862 44.9023H34.3866C34.9511 44.9023 35.2576 45.5629 34.893 45.9939L32.9644 48.2742C32.697 48.5906 32.2082 48.587 31.9454 48.2667Z" fill="#B93426"/>
<path d="M63.0098 0V0.53066C63.0098 3.6307 60.4946 6.15375 57.3979 6.16772C58.9295 4.77175 59.8925 2.76159 59.8925 0.53066V0H57.9027V0.53066C57.9027 3.63934 55.3737 6.16835 52.265 6.16835C50.4051 6.16835 48.8669 7.56787 48.6455 9.36894C48.1406 9.10462 47.5672 8.95406 46.959 8.95406H44.7039C43.0582 8.95406 41.7193 7.61522 41.7193 5.96942V4.11223H39.7295V5.96942C39.7295 8.71234 41.961 10.9439 44.704 10.9439H46.9591C47.8734 10.9439 48.6172 11.6877 48.6172 12.602V14.0612C48.6172 17.0002 46.3564 19.4197 43.4829 19.6753C44.0302 18.7358 43.905 17.5082 43.1004 16.7017C42.6359 16.2395 42.0199 15.9848 41.3665 15.9848C40.7129 15.9848 40.0971 16.2393 39.6309 16.7033L38.1465 18.1878C36.4754 17.4456 34.6433 17.046 32.7495 17.046H32.2507C30.3568 17.046 28.5247 17.4456 26.8537 18.1878L25.3663 16.7004C25.103 16.4393 24.7934 16.245 24.4566 16.127C24.3789 16.0987 24.2957 16.074 24.217 16.0555C23.8321 15.9616 23.4274 15.9635 23.0579 16.0536C22.9714 16.074 22.8882 16.0987 22.8213 16.1229C22.474 16.2448 22.1643 16.439 21.8972 16.704C21.0947 17.5082 20.9698 18.7355 21.5172 19.6753C18.6436 19.4199 16.3828 17.0003 16.3828 14.0612V12.602C16.3828 11.6877 17.1266 10.9439 18.0409 10.9439H20.296C23.0389 10.9439 25.2705 8.71247 25.2705 5.96942V4.11223H23.2805V5.96942C23.2805 7.61522 21.9415 8.95406 20.2958 8.95406H18.0408C17.4326 8.95406 16.859 9.1045 16.3542 9.36894C16.1328 7.56774 14.5945 6.16835 12.7347 6.16835C9.62602 6.16835 7.097 3.63934 7.097 0.53066V0H5.10716V0.53066C5.10716 2.76159 6.06996 4.77162 7.60177 6.16772C4.50502 6.15375 1.98985 3.6307 1.98985 0.53066V0H0V0.53066C0 4.73658 3.42161 8.1582 7.62754 8.1582H12.7347C13.649 8.1582 14.3928 8.90201 14.3928 9.81632V14.0612C14.3928 18.2671 17.8144 21.6888 22.0204 21.6888H22.1634C21.7936 22.122 21.4484 22.5814 21.1318 23.0664C20.4831 24.0603 19.98 25.1201 19.622 26.2169C19.1858 25.317 18.6089 24.4377 17.8416 23.6702C14.5605 20.3893 9.23424 20.5566 9.00928 20.5656L8.08939 20.6013L8.05372 21.5212C8.04496 21.7463 7.87751 27.0725 11.1583 30.3534C13.8097 33.0048 17.7964 33.404 19.3475 33.4551C19.5307 34.2053 19.7793 34.9459 20.097 35.6681L27.9243 53.4649C28.2947 54.3073 29.1289 54.8517 30.0493 54.8517H34.9504C35.871 54.8517 36.705 54.3075 37.0755 53.4649L44.9027 35.6681C45.2205 34.946 45.4689 34.2053 45.6521 33.4551C47.2035 33.4042 51.19 33.0048 53.8413 30.3534C57.122 27.0725 56.9548 21.7463 56.9459 21.5212L56.9102 20.6013L55.9903 20.5656C55.7652 20.5569 50.439 20.3891 47.158 23.6702C46.3906 24.4377 45.8138 25.317 45.3776 26.2169C45.0195 25.1201 44.5165 24.0603 43.8678 23.0664C43.5512 22.5814 43.2061 22.1219 42.8362 21.6888H42.9796C47.1856 21.6888 50.6072 18.2671 50.6072 14.0612V9.81632C50.6072 8.90201 51.351 8.1582 52.2653 8.1582H57.3725C61.5784 8.1582 65 4.73658 65 0.53066V0H63.0098ZM41.036 18.1118C41.214 17.9345 41.5208 17.9371 41.694 18.1092C41.8752 18.2908 41.8752 18.5862 41.6948 18.7671L40.7632 19.6987H40.7189C40.4755 19.5157 40.2259 19.3419 39.9711 19.1766L41.036 18.1118ZM23.3019 18.1129C23.3537 18.0616 23.4135 18.0238 23.4905 17.9967C23.4982 17.9941 23.5061 17.992 23.5217 17.9884C23.5981 17.9697 23.6608 17.9678 23.7527 17.9903C23.7605 17.9922 23.7684 17.9939 23.7868 18.0004C23.8532 18.0236 23.9131 18.0615 23.9618 18.11L25.0286 19.1766C24.7738 19.3419 24.5241 19.5157 24.2809 19.6987H24.2366L23.3057 18.7677C23.1243 18.5864 23.1243 18.2909 23.3019 18.1129ZM12.5655 28.9465C10.6567 27.0379 10.1871 24.1059 10.0748 22.5867C11.5947 22.6993 14.5265 23.169 16.4346 25.0772C18.3441 26.9867 18.8133 29.921 18.9253 31.4393C17.4088 31.3301 14.4835 30.8645 12.5655 28.9465ZM32.4618 47.3283L31.2872 45.8976H33.6716L32.4618 47.3283ZM48.565 25.0772C50.4746 23.1676 53.4089 22.6985 54.9271 22.5866C54.8178 24.1029 54.3521 27.0284 52.434 28.9466C50.5245 30.8561 47.5904 31.3252 46.0721 31.4373C46.1815 29.9208 46.6468 26.9954 48.565 25.0772ZM43.0812 34.867L35.254 52.6638C35.201 52.7842 35.0818 52.862 34.9503 52.862H33.4945V49.1385C33.5768 49.0723 33.6544 48.9993 33.7241 48.9171L35.6527 46.6368C36.0743 46.1381 36.1655 45.4604 35.8906 44.8681C35.6159 44.2758 35.0395 43.9078 34.3865 43.9078H30.5862C29.9385 43.9078 29.364 44.2715 29.0873 44.857C28.8103 45.4425 28.8935 46.1174 29.3047 46.618L31.1766 48.8983C31.2729 49.0155 31.3842 49.1152 31.5052 49.2004V52.8617H30.0494C29.918 52.8617 29.7987 52.784 29.7458 52.6635L21.9185 34.8668C20.3777 31.3634 20.7067 27.3586 22.7984 24.1537C24.8901 20.9486 28.4236 19.0353 32.2507 19.0353H32.7495C36.5766 19.0353 40.11 20.9488 42.2017 24.1537C44.2931 27.3588 44.622 31.3636 43.0812 34.867Z" fill="black"/>
</svg>
