<svg width="40" height="46" viewBox="0 0 40 46" fill="none" xmlns="http://www.w3.org/2000/svg">
<path d="M31.1455 16.1882C34.745 18.4378 36.5445 19.5626 37.1617 21.0028C37.7007 22.2603 37.7007 23.684 37.1617 24.9418C36.5445 26.3818 34.745 27.5065 31.1455 29.7563L14.24 40.3223C10.2451 42.8191 8.24767 44.0676 6.59932 43.9348C5.16252 43.8193 3.84545 43.0895 2.986 41.9323C2 40.6048 2 38.2493 2 33.5383V12.4062C2 7.69527 2 5.33982 2.986 4.01225C3.84545 2.85505 5.16252 2.12507 6.59932 2.00955C8.24767 1.87705 10.2451 3.12545 14.24 5.62225L31.1455 16.1882Z" stroke="white" stroke-width="4" stroke-linejoin="round"/>
</svg>
