<svg width="105" height="103" viewBox="0 0 106 104" fill="none" xmlns="http://www.w3.org/2000/svg" id="star2">
    <path d="M48.4254 4.84975C49.8071 2.21581 50.498 0.898774 51.4207 0.46882C52.2242 0.0942965 53.1511 0.0942965 53.9552 0.46882C54.878 0.898774 55.5688 2.21581 56.9505 4.84975L65.4251 21.0037C66.022 22.141 66.3201 22.7096 66.7646 23.0882C67.1567 23.4225 67.6277 23.6503 68.1319 23.7499C68.7035 23.8627 69.3323 23.7426 70.5893 23.5021L88.4437 20.0873C91.3547 19.5305 92.8104 19.2521 93.7205 19.7088C94.5132 20.1066 95.0908 20.8347 95.3004 21.6995C95.5413 22.6924 94.9475 24.0562 93.7591 26.7839L86.4723 43.5128C85.9591 44.6904 85.7032 45.2792 85.6851 45.8644C85.6694 46.3805 85.7857 46.8925 86.023 47.3512C86.2916 47.8704 86.7771 48.2892 87.748 49.1267L101.537 61.0226C103.786 62.9621 104.91 63.9321 105.122 64.9312C105.307 65.802 105.1 66.7097 104.558 67.4135C103.935 68.222 102.503 68.6056 99.6401 69.373L82.079 74.0792C80.8425 74.4108 80.2245 74.5766 79.7583 74.9276C79.3469 75.2368 79.0211 75.6477 78.8121 76.1197C78.5754 76.6546 78.5519 77.2967 78.5055 78.5814L77.846 96.8301C77.7388 99.8056 77.6852 101.293 77.0395 102.083C76.4769 102.771 75.6421 103.175 74.7561 103.188C73.7388 103.202 72.548 102.317 70.1653 100.546L55.5538 89.6864C54.525 88.9221 54.0106 88.5397 53.4469 88.392C52.9494 88.2619 52.4266 88.2619 51.9291 88.392C51.3653 88.5397 50.8509 88.9221 49.8222 89.6864L35.2106 100.546C32.8281 102.317 31.6369 103.202 30.6198 103.188C29.7341 103.175 28.8988 102.771 28.3365 102.083C27.6908 101.293 27.6371 99.8056 27.5296 96.8301L26.8702 78.5814C26.8239 77.2967 26.8006 76.6546 26.5639 76.1197C26.355 75.6477 26.0292 75.2368 25.6175 74.9276C25.1512 74.5766 24.5331 74.4108 23.2968 74.0792L5.73568 69.373C2.87229 68.6056 1.44059 68.222 0.818039 67.4135C0.275777 66.7097 0.0695446 65.802 0.254093 64.9312C0.465987 63.9321 1.5902 62.9621 3.83864 61.0226L17.6282 49.1267C18.5989 48.2892 19.0843 47.8704 19.3529 47.3512C19.59 46.8925 19.7063 46.3805 19.6906 45.8644C19.673 45.2792 19.4165 44.6904 18.9035 43.5128L11.6168 26.7839C10.4287 24.0562 9.8346 22.6924 10.0753 21.6995C10.285 20.8347 10.8629 20.1066 11.6555 19.7088C12.5653 19.2521 14.021 19.5305 16.9322 20.0873L34.7868 23.5021C36.0437 23.7426 36.6722 23.8627 37.2438 23.7499C37.7484 23.6503 38.2193 23.4225 38.6114 23.0882C39.0556 22.7096 39.3539 22.141 39.9505 21.0037L48.4254 4.84975Z" fill="#704EEA"/>
</svg>