<svg width="105" height="103" viewBox="0 0 105 103" fill="none" xmlns="http://www.w3.org/2000/svg" id="star1">
    <path d="M48.2374 4.66182C49.6191 2.02788 50.31 0.710846 51.2327 0.280892C52.0362 -0.0936308 52.9632 -0.0936308 53.7673 0.280892C54.69 0.710846 55.3809 2.02788 56.7626 4.66182L65.2371 20.8158C65.834 21.9531 66.1321 22.5217 66.5766 22.9003C66.9688 23.2346 67.4398 23.4624 67.9439 23.562C68.5155 23.6748 69.1443 23.5546 70.4013 23.3142L88.2557 19.8993C91.1667 19.3425 92.6225 19.0642 93.5326 19.5209C94.3252 19.9186 94.9028 20.6468 95.1124 21.5115C95.3534 22.5045 94.7595 23.8683 93.5711 26.596L86.2843 43.3248C85.7712 44.5024 85.5152 45.0913 85.4971 45.6764C85.4815 46.1926 85.5977 46.7046 85.835 47.1633C86.1036 47.6825 86.5891 48.1012 87.56 48.9388L101.349 60.8347C103.598 62.7741 104.722 63.7442 104.934 64.7433C105.119 65.6141 104.912 66.5218 104.37 67.2256C103.747 68.034 102.315 68.4177 99.4521 69.185L81.8911 73.8912C80.6545 74.2228 80.0365 74.3886 79.5703 74.7396C79.159 75.0489 78.8331 75.4598 78.6241 75.9318C78.3874 76.4667 78.3639 77.1088 78.3175 78.3935L77.658 96.6422C77.5508 99.6177 77.4972 101.105 76.8515 101.895C76.2889 102.583 75.4541 102.987 74.5681 103C73.5508 103.014 72.3601 102.129 69.9773 100.358L55.3658 89.4985C54.337 88.7342 53.8227 88.3517 53.2589 88.2041C52.7614 88.074 52.2386 88.074 51.7411 88.2041C51.1773 88.3517 50.6629 88.7342 49.6342 89.4985L35.0226 100.358C32.6401 102.129 31.4489 103.014 30.4318 103C29.5461 102.987 28.7109 102.583 28.1485 101.895C27.5029 101.105 27.4491 99.6177 27.3416 96.6422L26.6823 78.3935C26.6359 77.1088 26.6126 76.4667 26.3759 75.9318C26.167 75.4598 25.8412 75.0489 25.4295 74.7396C24.9633 74.3886 24.3451 74.2228 23.1089 73.8912L5.5477 69.185C2.6843 68.4177 1.2526 68.034 0.630051 67.2256C0.0877887 66.5218 -0.118444 65.6141 0.066105 64.7433C0.277999 63.7442 1.40222 62.7741 3.65065 60.8347L17.4402 48.9388C18.4109 48.1012 18.8963 47.6825 19.1649 47.1633C19.402 46.7046 19.5183 46.1926 19.5026 45.6764C19.485 45.0913 19.2285 44.5024 18.7155 43.3248L11.4288 26.596C10.2407 23.8683 9.64662 22.5045 9.88736 21.5115C10.097 20.6468 10.6749 19.9186 11.4675 19.5209C12.3773 19.0642 13.833 19.3425 16.7442 19.8993L34.5988 23.3142C35.8557 23.5546 36.4842 23.6748 37.0558 23.562C37.5605 23.4624 38.0313 23.2346 38.4235 22.9003C38.8677 22.5217 39.1659 21.9531 39.7625 20.8158L48.2374 4.66182Z" fill="#FFC62F"/>
</svg>